<svg width="28" height="28" viewBox="0 0 28 28" fill="none" xmlns="http://www.w3.org/2000/svg">
<path d="M28 14C28 16.7689 27.1789 19.4757 25.6406 21.778C24.1022 24.0803 21.9157 25.8747 19.3576 26.9343C16.7994 27.9939 13.9845 28.2712 11.2687 27.731C8.553 27.1908 6.05844 25.8574 4.1005 23.8995C2.14257 21.9416 0.809199 19.447 0.269006 16.7313C-0.271187 14.0155 0.0060597 11.2006 1.06569 8.64243C2.12531 6.08427 3.91973 3.89777 6.22202 2.35943C8.52431 0.821086 11.2311 -3.30193e-08 14 0V5.00487C12.2209 5.00487 10.4818 5.53242 9.00257 6.52082C7.52333 7.50922 6.3704 8.91407 5.68958 10.5577C5.00876 12.2014 4.83063 14.01 5.17771 15.7549C5.52479 17.4997 6.38149 19.1025 7.63948 20.3605C8.89747 21.6185 10.5003 22.4752 12.2451 22.8223C13.99 23.1694 15.7986 22.9912 17.4423 22.3104C19.0859 21.6296 20.4908 20.4767 21.4792 18.9974C22.4676 17.5182 22.9951 15.7791 22.9951 14H28Z" fill="white"/>
<rect x="15" width="13" height="13" fill="#26A6EF"/>
</svg>
